<?xml version="1.0" standalone="no"?><!DOCTYPE svg PUBLIC "-//W3C//DTD SVG 1.1//EN" "http://www.w3.org/Graphics/SVG/1.1/DTD/svg11.dtd"><svg t="1513306281581" class="icon" style="" viewBox="0 0 1336 1024" version="1.1" xmlns="http://www.w3.org/2000/svg" p-id="1789" xmlns:xlink="http://www.w3.org/1999/xlink" width="260.9375" height="200"><defs><style type="text/css"></style></defs><path d="M267.130435 934.912C414.430609 934.912 534.26087 815.059478 534.26087 667.781565 534.26087 594.031304 504.854261 525.356522 451.450435 474.401391 442.590609 465.942261 428.454957 466.276174 419.973565 475.136 411.492174 484.040348 411.826087 498.131478 420.708174 506.61287 465.207652 549.086609 489.73913 606.297043 489.73913 667.781565 489.73913 790.528 389.87687 890.390261 267.130435 890.390261 144.384 890.390261 44.521739 790.528 44.521739 667.781565 44.521739 545.01287 144.384 445.17287 267.130435 445.17287 279.440696 445.17287 289.391304 435.2 289.391304 422.912 289.391304 410.601739 279.440696 400.65113 267.130435 400.65113 119.830261 400.65113 0 520.481391 0 667.781565 0 815.059478 119.830261 934.912 267.130435 934.912" p-id="1790"></path><path d="M1046.26087 422.912C1046.26087 435.2 1056.211478 445.17287 1068.521739 445.17287 1191.268174 445.17287 1291.130435 545.01287 1291.130435 667.781565 1291.130435 790.528 1191.268174 890.390261 1068.521739 890.390261 945.775304 890.390261 845.913043 790.528 845.913043 667.781565 845.913043 601.065739 875.453217 538.445913 927.009391 495.927652 936.470261 488.114087 937.828174 474.089739 929.992348 464.606609 922.178783 455.145739 908.176696 453.743304 898.649043 461.57913 836.85287 512.578783 801.391304 587.709217 801.391304 667.781565 801.391304 815.059478 921.221565 934.912 1068.521739 934.912 1215.821913 934.912 1335.652174 815.059478 1335.652174 667.781565 1335.652174 520.481391 1215.821913 400.65113 1068.521739 400.65113 1056.211478 400.65113 1046.26087 410.601739 1046.26087 422.912" p-id="1791"></path><path d="M1034.217739 639.73287C1027.940174 647.41287 1024 657.096348 1024 667.781565 1024 692.335304 1043.990261 712.303304 1068.521739 712.303304 1093.053217 712.303304 1113.043478 692.335304 1113.043478 667.781565 1113.043478 645.743304 1096.904348 627.533913 1075.890087 623.994435L975.426783 356.129391 1134.34713 356.129391C1160.993391 356.129391 1176.486957 334.825739 1179.40313 315.970783L1201.641739 204.666435C1202.95513 198.121739 1201.263304 191.332174 1197.033739 186.189913 1192.804174 181.025391 1186.504348 178.042435 1179.826087 178.042435L979.478261 178.042435C967.168 178.042435 957.217391 187.993043 957.217391 200.303304 957.217391 212.591304 967.168 222.564174 979.478261 222.564174L1152.667826 222.564174 1135.660522 307.734261C1135.326609 309.270261 1134.369391 311.429565 1134.34713 311.607652L958.73113 311.607652 889.032348 125.70713C888.987826 125.618087 888.921043 125.573565 888.898783 125.484522 888.854261 125.395478 888.876522 125.306435 888.854261 125.239652L844.332522 13.935304C839.769043 2.515478 826.701913-2.960696 815.393391 1.536 803.973565 6.099478 798.408348 19.055304 802.971826 30.47513L843.53113 131.784348 759.808 278.305391C753.686261 288.968348 757.403826 302.569739 768.089043 308.669217 771.561739 310.650435 775.368348 311.607652 779.108174 311.607652 786.854957 311.607652 794.35687 307.578435 798.45287 300.388174L863.98887 185.722435 917.548522 328.570435 747.898435 519.41287C739.706435 528.606609 740.552348 542.675478 749.746087 550.845217 753.975652 554.629565 759.251478 556.477217 764.527304 556.477217 770.649043 556.477217 776.770783 553.939478 781.156174 548.997565L935.223652 375.696696 1034.217739 639.73287" p-id="1792"></path><path d="M690.086957 559.638261 690.086957 489.694609C702.397217 489.694609 712.347826 479.721739 712.347826 467.433739 712.347826 455.123478 702.397217 445.17287 690.086957 445.17287L645.565217 445.17287C633.254957 445.17287 623.304348 455.123478 623.304348 467.433739 623.304348 479.721739 633.254957 489.694609 645.565217 489.694609L645.565217 559.638261C607.254261 569.58887 578.782609 604.137739 578.782609 645.520696 578.782609 686.881391 607.254261 721.430261 645.565217 731.40313L645.565217 801.346783C633.254957 801.346783 623.304348 811.297391 623.304348 823.607652 623.304348 835.895652 633.254957 845.868522 645.565217 845.868522L690.086957 845.868522C702.397217 845.868522 712.347826 835.895652 712.347826 823.607652 712.347826 811.297391 702.397217 801.346783 690.086957 801.346783L690.086957 731.40313C728.397913 721.430261 756.869565 686.881391 756.869565 645.520696 756.869565 604.137739 728.397913 569.58887 690.086957 559.638261L690.086957 559.638261ZM667.826087 690.042435C643.294609 690.042435 623.304348 670.074435 623.304348 645.520696 623.304348 620.966957 643.294609 600.998957 667.826087 600.998957 692.379826 600.998957 712.347826 620.966957 712.347826 645.520696 712.347826 670.074435 692.379826 690.042435 667.826087 690.042435L667.826087 690.042435Z" p-id="1793"></path><path d="M378.434783 311.607652 389.721043 311.607652 261.12 623.86087C239.437913 626.821565 222.608696 645.275826 222.608696 667.781565 222.608696 692.335304 242.576696 712.303304 267.130435 712.303304 291.684174 712.303304 311.652174 692.335304 311.652174 667.781565 311.652174 657.586087 308.090435 648.325565 302.302609 640.801391L427.920696 335.782957 568.809739 540.338087C575.75513 550.466783 589.57913 553.049043 599.752348 546.05913 609.903304 539.069217 612.441043 525.222957 605.45113 515.094261L465.296696 311.607652 512 311.607652C548.819478 311.607652 578.782609 281.644522 578.782609 244.825043 578.782609 207.983304 548.819478 178.042435 512 178.042435L378.434783 178.042435C366.124522 178.042435 356.173913 187.993043 356.173913 200.303304L356.173913 289.346783C356.173913 301.634783 366.124522 311.607652 378.434783 311.607652L378.434783 311.607652ZM400.695652 222.564174 512 222.564174C524.288 222.564174 534.26087 232.537043 534.26087 244.825043 534.26087 257.090783 524.288 267.085913 512 267.085913L400.695652 267.085913 400.695652 222.564174 400.695652 222.564174Z" p-id="1794"></path><path d="M333.913043 979.478261 22.26087 979.478261C9.950609 979.478261 0 989.45113 0 1001.73913 0 1014.02713 9.950609 1024 22.26087 1024L333.913043 1024C346.223304 1024 356.173913 1014.02713 356.173913 1001.73913 356.173913 989.45113 346.223304 979.478261 333.913043 979.478261" p-id="1795"></path><path d="M690.086957 979.478261 467.478261 979.478261C455.168 979.478261 445.217391 989.45113 445.217391 1001.73913 445.217391 1014.02713 455.168 1024 467.478261 1024L690.086957 1024C702.397217 1024 712.347826 1014.02713 712.347826 1001.73913 712.347826 989.45113 702.397217 979.478261 690.086957 979.478261" p-id="1796"></path><path d="M1313.391304 979.478261 957.217391 979.478261C944.90713 979.478261 934.956522 989.45113 934.956522 1001.73913 934.956522 1014.02713 944.90713 1024 957.217391 1024L1313.391304 1024C1325.701565 1024 1335.652174 1014.02713 1335.652174 1001.73913 1335.652174 989.45113 1325.701565 979.478261 1313.391304 979.478261" p-id="1797"></path><path d="M868.173913 979.478261 823.652174 979.478261C811.341913 979.478261 801.391304 989.45113 801.391304 1001.73913 801.391304 1014.02713 811.341913 1024 823.652174 1024L868.173913 1024C880.484174 1024 890.434783 1014.02713 890.434783 1001.73913 890.434783 989.45113 880.484174 979.478261 868.173913 979.478261" p-id="1798"></path></svg>